<svg id="Layer_1" data-name="Layer 1" xmlns="http://www.w3.org/2000/svg" viewBox="0 0 187.75 169.62"><defs><style>.cls-1{fill:#f5af2b;}</style></defs><rect class="cls-1" x="9.71" y="19.15" width="150.47" height="150.47"/><path d="M54.35,45.44h63q15.35,0,26.79,3.84a47.85,47.85,0,0,1,19.26,11.78,49.63,49.63,0,0,1,10.9,15.49,43.17,43.17,0,0,1,3.84,17.73A41.59,41.59,0,0,1,174,112.75a43.21,43.21,0,0,1-11.71,14.67,54.92,54.92,0,0,1-18,9.55,72.68,72.68,0,0,1-22.48,3.36H54.35v-2.65h3.47q8.76,0,13-4.25t4.25-13V65.21q0-8.83-4.21-13T57.82,48H54.35ZM95.11,48v89.73h18.33a85.4,85.4,0,0,0,13.25-.88,33.73,33.73,0,0,0,9.51-2.89,24.62,24.62,0,0,0,7.13-5.26q11.28-11.49,11.28-35.32a75.14,75.14,0,0,0-1.4-14.78,48.61,48.61,0,0,0-4-12.26,35.35,35.35,0,0,0-6.65-9.3A28,28,0,0,0,135,51.72a35.43,35.43,0,0,0-9.64-2.88A83.75,83.75,0,0,0,112.22,48Z" transform="translate(-54.35 -45.44)"/><path d="M151.52,156.49h1.1l16.65,36.2a11.39,11.39,0,0,0,1.79,2.78,6,6,0,0,0,2.23,1.59,8.15,8.15,0,0,0,2.94.49h1.09v1.15h-24v-1.15h3.14a7,7,0,0,0,3.42-.64,2.12,2.12,0,0,0,1.08-2,6,6,0,0,0-.43-2c-.28-.79-.91-2.23-1.88-4.3-.06-.12-.15-.32-.27-.59a6.55,6.55,0,0,0-.38-.8l-.68-1.51H139.76l-1.33,3.08a8.07,8.07,0,0,0-.65,3.17,5.42,5.42,0,0,0,.75,2.69,5.25,5.25,0,0,0,2,2,5.54,5.54,0,0,0,1.44.63,9.5,9.5,0,0,0,1.82.23v1.15H126.9v-1.15a11.49,11.49,0,0,0,2.92-.65,10.66,10.66,0,0,0,2.42-1.49q3.13-2.43,6.13-9.15Zm-3.14,9.69-8.12,18.45h16.45Z" transform="translate(-54.35 -45.44)"/><path d="M156.76,95.23H196.3V96.8h-1.83q-5.64,0-8.5,2.84t-2.86,8.61v27.2l29.61-23.71a20.76,20.76,0,0,0,4-4,6.45,6.45,0,0,0,1-3.6,6.2,6.2,0,0,0-2.86-5.35,13.4,13.4,0,0,0-7.78-2h-1.48V95.23h36.55V96.8h-.9q-7.56,0-21.51,11.27l-12.3,9.8,18.87,28.94a22.54,22.54,0,0,0,6.6,7,14.86,14.86,0,0,0,8.07,2.17h1.17v1.74H203.55V156h2q8.55,0,8.54-4a3.62,3.62,0,0,0-.38-1.54,24.54,24.54,0,0,0-1.54-2.66l-14.31-22.1-14.76,11.81v7.16q0,5.72,2.86,8.54t8.5,2.82h1.83v1.74H156.85V156h1.74q5.78,0,8.61-2.82t2.85-8.54V108.25q0-5.77-2.85-8.61t-8.61-2.84h-1.83Z" transform="translate(-54.35 -45.44)"/><path d="M91.21,104.54H144v2h-5.59q-7.14,0-10.58,3.43t-3.43,10.63v59.19h20a24.62,24.62,0,0,0,11.19-2.63,27.87,27.87,0,0,0,9.14-7.33,60.31,60.31,0,0,0,4.09-5.82,44.11,44.11,0,0,0,3.38-7q1.6-4.09,3.16-9.42h2.05v34.22H91.21l-.11-2H94q14.07,0,14.07-14.17v-45q0-14.06-14.07-14.06H91.21Z" transform="translate(-54.35 -45.44)"/></svg>